<svg viewBox="0 0 818 160" fill="none" xmlns="http://www.w3.org/2000/svg">
<path d="M147.8 54C155.4 54 160.533 53.7333 163.2 53.2V57.4C160.4 58.4667 157.8 60.4667 155.4 63.4C153.133 66.2 151 70.6667 149 76.8L124 157C121.867 156.733 118.667 156.6 114.4 156.6C110 156.6 106.733 156.733 104.6 157L80.8 87.8L62.6 157C60.4667 156.733 57.2667 156.6 53 156.6C48.6 156.6 45.3333 156.733 43.2 157L12.4 68.6C10.8 63.9333 9 60.9333 7 59.6C5 58.1333 2.93333 57.4 0.8 57.4V53.2C11.3333 54 23.2 54.4 36.4 54.4C43.0667 54.4 51.7333 54 62.4 53.2V57.4C58.2667 57.4 55.2667 57.7333 53.4 58.4C51.6667 59.0667 50.8 60.4 50.8 62.4C50.8 62.8 50.9333 63.6667 51.2 65L67.8 120.4L85 53.4H85.2C89.4667 53.6667 92.6667 53.8 94.8 53.8C97.4667 53.8 101.333 53.6667 106.4 53.4L129.2 126.6L137.8 98C139.933 90.6667 141 84.2667 141 78.8C141 72.1333 139.533 67 136.6 63.4C133.667 59.8 129.733 57.8 124.8 57.4V53.2C129.733 53.7333 137.4 54 147.8 54ZM225.459 138C235.193 138 243.259 133.533 249.659 124.6L253.059 125.8C250.126 135.133 245.126 143.133 238.059 149.8C231.126 156.467 222.193 159.8 211.259 159.8C197.259 159.8 186.059 155.467 177.659 146.8C169.259 138.133 165.059 124.267 165.059 105.2C165.059 86.9333 169.726 73.2667 179.059 64.2C188.526 55 200.993 50.4 216.459 50.4C241.659 50.4 254.259 65.3333 254.259 95.2H202.659C202.526 96.8 202.459 99.2 202.459 102.4C202.459 115.2 204.659 124.333 209.059 129.8C213.593 135.267 219.059 138 225.459 138ZM215.059 55C207.593 55 203.193 67.1333 201.859 91.4H225.059C225.193 80.7333 224.393 72 222.659 65.2C221.059 58.4 218.526 55 215.059 55ZM310.245 138.4C310.245 143.867 311.045 147.667 312.645 149.8C314.379 151.8 317.312 152.8 321.445 152.8V157C307.045 156.467 297.579 156.2 293.045 156.2C288.512 156.2 278.512 156.467 263.045 157V152.8C267.179 152.8 270.045 151.8 271.645 149.8C273.379 147.667 274.245 143.867 274.245 138.4V24.6C274.245 18.4667 273.379 14 271.645 11.2C270.045 8.39999 267.179 6.99999 263.045 6.99999V2.79999C267.179 3.2 271.312 3.4 275.445 3.4C289.312 3.4 300.912 2.46666 310.245 0.599987V138.4ZM380.517 50.4C385.984 50.4 390.984 51 395.517 52.2C400.184 53.2667 403.984 54.6667 406.917 56.4C410.651 58.5333 413.584 61.4 415.717 65C417.851 68.6 418.917 72.6667 418.917 77.2C418.917 82.8 417.117 87.4667 413.517 91.2C409.917 94.8 405.317 96.6 399.717 96.6C393.984 96.6 389.451 95 386.117 91.8C382.917 88.4667 381.317 84.0667 381.317 78.6C381.317 73.8 382.851 69.6 385.917 66C389.117 62.2667 393.051 59.8 397.717 58.6C395.717 57 393.051 56.2 389.717 56.2C381.184 56.2 375.184 60.8 371.717 70C368.251 79.0667 366.517 89.8667 366.517 102.4C366.517 115.2 368.917 124.333 373.717 129.8C378.517 135.267 384.451 138 391.517 138C401.251 138 409.317 133.533 415.717 124.6L419.117 125.8C416.184 135.133 411.184 143.133 404.117 149.8C397.184 156.467 388.251 159.8 377.317 159.8C362.784 159.8 351.117 155.467 342.317 146.8C333.517 138.133 329.117 124.267 329.117 105.2C329.117 86.9333 333.784 73.2667 343.117 64.2C352.584 55 365.051 50.4 380.517 50.4ZM481.303 50.4C497.703 50.4 510.37 54.7333 519.303 63.4C528.236 71.9333 532.703 85.8667 532.703 105.2C532.703 124.533 528.236 138.467 519.303 147C510.37 155.533 497.703 159.8 481.303 159.8C464.903 159.8 452.236 155.533 443.303 147C434.37 138.467 429.903 124.533 429.903 105.2C429.903 85.8667 434.37 71.9333 443.303 63.4C452.236 54.7333 464.903 50.4 481.303 50.4ZM481.303 54.4C477.036 54.4 473.636 58.6 471.103 67C468.57 75.4 467.303 88.1333 467.303 105.2C467.303 122.267 468.57 135 471.103 143.4C473.636 151.667 477.036 155.8 481.303 155.8C485.57 155.8 488.97 151.667 491.503 143.4C494.036 135 495.303 122.267 495.303 105.2C495.303 88.1333 494.036 75.4 491.503 67C488.97 58.6 485.57 54.4 481.303 54.4ZM708.738 138.4C708.738 143.867 709.538 147.667 711.138 149.8C712.871 151.8 715.804 152.8 719.938 152.8V157C705.538 156.467 696.204 156.2 691.938 156.2C687.671 156.2 678.871 156.467 665.538 157V152.8C668.204 152.8 670.071 151.8 671.138 149.8C672.204 147.8 672.738 144 672.738 138.4V73.4C672.738 69.1333 671.938 66 670.338 64C668.871 61.8667 666.404 60.8 662.938 60.8C659.471 60.8 656.271 62.2667 653.338 65.2C650.538 68.1333 648.804 71.6 648.138 75.6C648.404 78.8 648.538 81.6667 648.538 84.2V138.4C648.538 144 649.204 147.8 650.538 149.8C651.871 151.8 654.271 152.8 657.738 152.8V157C644.404 156.467 635.738 156.2 631.738 156.2C627.471 156.2 618.671 156.467 605.338 157V152.8C608.004 152.8 609.871 151.8 610.938 149.8C612.004 147.667 612.538 143.867 612.538 138.4V73.4C612.538 69.1333 611.938 66 610.738 64C609.538 61.8667 607.538 60.8 604.738 60.8C600.871 60.8 597.471 62.2 594.538 65C591.738 67.6667 590.337 71.0667 590.337 75.2V138.4C590.337 144 590.871 147.8 591.938 149.8C593.004 151.8 594.871 152.8 597.538 152.8V157C585.271 156.467 577.138 156.2 573.138 156.2C568.604 156.2 558.604 156.467 543.138 157V152.8C547.271 152.8 550.138 151.8 551.738 149.8C553.471 147.667 554.338 143.867 554.338 138.4V75C554.338 68.8667 553.471 64.4 551.738 61.6C550.138 58.8 547.271 57.4 543.138 57.4V53.2C547.404 53.6 551.538 53.8 555.538 53.8C569.404 53.8 581.004 52.8667 590.337 51V65.4C595.938 55.4 605.871 50.4 620.138 50.4C630.804 50.4 638.338 53.0667 642.738 58.4C644.738 60.8 646.204 63.9333 647.138 67.8C650.471 61.4 654.871 56.9333 660.338 54.4C665.938 51.7333 672.604 50.4 680.338 50.4C691.004 50.4 698.538 53.0667 702.938 58.4C704.938 60.8 706.404 64.0667 707.338 68.2C708.271 72.2 708.738 77.5333 708.738 84.2V138.4ZM788.741 138C798.474 138 806.541 133.533 812.941 124.6L816.341 125.8C813.407 135.133 808.407 143.133 801.341 149.8C794.407 156.467 785.474 159.8 774.541 159.8C760.541 159.8 749.341 155.467 740.941 146.8C732.541 138.133 728.341 124.267 728.341 105.2C728.341 86.9333 733.007 73.2667 742.341 64.2C751.807 55 764.274 50.4 779.741 50.4C804.941 50.4 817.541 65.3333 817.541 95.2H765.941C765.807 96.8 765.741 99.2 765.741 102.4C765.741 115.2 767.941 124.333 772.341 129.8C776.874 135.267 782.341 138 788.741 138ZM778.341 55C770.874 55 766.474 67.1333 765.141 91.4H788.341C788.474 80.7333 787.674 72 785.941 65.2C784.341 58.4 781.807 55 778.341 55Z" fill="#202020"/>
</svg>
